<svg width="149" height="14" viewBox="0 0 149 14" fill="none" xmlns="http://www.w3.org/2000/svg">
<path opacity="0.7" d="M5.656 11.042C4.956 11.042 4.30733 10.916 3.71 10.664C3.11267 10.412 2.59 10.062 2.142 9.614C1.694 9.15667 1.344 8.62933 1.092 8.032C0.849333 7.43467 0.728 6.79067 0.728 6.1C0.728 5.40933 0.854 4.76533 1.106 4.168C1.358 3.57067 1.708 3.048 2.156 2.6C2.604 2.14267 3.12667 1.788 3.724 1.536C4.33067 1.284 4.984 1.158 5.684 1.158C6.384 1.158 7.03267 1.284 7.63 1.536C8.23667 1.77867 8.75933 2.124 9.198 2.572C9.646 3.02 9.99133 3.54267 10.234 4.14C10.486 4.728 10.612 5.372 10.612 6.072C10.612 6.772 10.486 7.42533 10.234 8.032C9.982 8.62933 9.62733 9.15667 9.17 9.614C8.722 10.062 8.19933 10.412 7.602 10.664C7.00467 10.916 6.356 11.042 5.656 11.042ZM5.642 10.524C6.27667 10.524 6.86 10.412 7.392 10.188C7.924 9.95467 8.39067 9.63733 8.792 9.236C9.20267 8.83467 9.52 8.36333 9.744 7.822C9.968 7.27133 10.08 6.688 10.08 6.072C10.08 5.44667 9.968 4.868 9.744 4.336C9.52933 3.804 9.22133 3.33733 8.82 2.936C8.428 2.53467 7.96133 2.22667 7.42 2.012C6.888 1.788 6.30933 1.676 5.684 1.676C5.04933 1.676 4.46133 1.788 3.92 2.012C3.37867 2.236 2.90733 2.55333 2.506 2.964C2.114 3.36533 1.806 3.832 1.582 4.364C1.358 4.896 1.246 5.47467 1.246 6.1C1.246 6.716 1.358 7.29467 1.582 7.836C1.806 8.368 2.114 8.83933 2.506 9.25C2.90733 9.65133 3.374 9.964 3.906 10.188C4.44733 10.412 5.026 10.524 5.642 10.524ZM5.782 9.012C5.222 9.012 4.72267 8.89067 4.284 8.648C3.84533 8.396 3.5 8.05067 3.248 7.612C2.996 7.17333 2.87 6.66933 2.87 6.1C2.87 5.53067 2.996 5.02667 3.248 4.588C3.5 4.14933 3.84533 3.80867 4.284 3.566C4.72267 3.314 5.222 3.188 5.782 3.188C6.258 3.188 6.68733 3.286 7.07 3.482C7.462 3.66867 7.77467 3.93 8.008 4.266L7.406 4.714C7.21 4.44333 6.972 4.24267 6.692 4.112C6.412 3.98133 6.104 3.916 5.768 3.916C5.36667 3.916 5.00733 4.00933 4.69 4.196C4.382 4.37333 4.13467 4.62533 3.948 4.952C3.76133 5.27867 3.668 5.66133 3.668 6.1C3.668 6.53867 3.76133 6.92133 3.948 7.248C4.13467 7.57467 4.382 7.83133 4.69 8.018C5.00733 8.19533 5.36667 8.284 5.768 8.284C6.104 8.284 6.412 8.21867 6.692 8.088C6.972 7.95733 7.21 7.75667 7.406 7.486L8.008 7.92C7.77467 8.26533 7.462 8.536 7.07 8.732C6.68733 8.91867 6.258 9.012 5.782 9.012ZM14.8305 11V7.36L15.0685 8.004L10.9105 1.2H12.0165L15.6705 7.178H15.0825L18.7365 1.2H19.7725L15.6145 8.004L15.8525 7.36V11H14.8305ZM23.3312 11.07C22.6219 11.07 21.9826 10.9113 21.4132 10.594C20.8532 10.2673 20.4099 9.824 20.0832 9.264C19.7566 8.69467 19.5932 8.046 19.5932 7.318C19.5932 6.58067 19.7566 5.932 20.0832 5.372C20.4099 4.812 20.8532 4.37333 21.4132 4.056C21.9732 3.73867 22.6126 3.58 23.3312 3.58C24.0592 3.58 24.7032 3.73867 25.2632 4.056C25.8326 4.37333 26.2759 4.812 26.5932 5.372C26.9199 5.932 27.0832 6.58067 27.0832 7.318C27.0832 8.046 26.9199 8.69467 26.5932 9.264C26.2759 9.824 25.8326 10.2673 25.2632 10.594C24.6939 10.9113 24.0499 11.07 23.3312 11.07ZM23.3312 10.188C23.8632 10.188 24.3346 10.0713 24.7452 9.838C25.1559 9.59533 25.4779 9.25933 25.7112 8.83C25.9539 8.39133 26.0752 7.88733 26.0752 7.318C26.0752 6.73933 25.9539 6.23533 25.7112 5.806C25.4779 5.37667 25.1559 5.04533 24.7452 4.812C24.3346 4.56933 23.8679 4.448 23.3452 4.448C22.8226 4.448 22.3559 4.56933 21.9452 4.812C21.5346 5.04533 21.2079 5.37667 20.9652 5.806C20.7226 6.23533 20.6012 6.73933 20.6012 7.318C20.6012 7.88733 20.7226 8.39133 20.9652 8.83C21.2079 9.25933 21.5346 9.59533 21.9452 9.838C22.3559 10.0713 22.8179 10.188 23.3312 10.188ZM32.1506 11.07C31.5252 11.07 30.9792 10.9533 30.5126 10.72C30.0459 10.4867 29.6819 10.1367 29.4206 9.67C29.1686 9.20333 29.0426 8.62 29.0426 7.92V3.65H30.0366V7.808C30.0366 8.592 30.2279 9.18467 30.6106 9.586C31.0026 9.978 31.5486 10.174 32.2486 10.174C32.7619 10.174 33.2052 10.0713 33.5786 9.866C33.9612 9.65133 34.2506 9.34333 34.4466 8.942C34.6519 8.54067 34.7546 8.06 34.7546 7.5V3.65H35.7486V11H34.7966V8.984L34.9506 9.348C34.7172 9.88933 34.3532 10.314 33.8586 10.622C33.3732 10.9207 32.8039 11.07 32.1506 11.07ZM40.8428 11.07C40.1521 11.07 39.6201 10.8833 39.2468 10.51C38.8735 10.1367 38.6868 9.60933 38.6868 8.928V2.026H39.6808V8.872C39.6808 9.30133 39.7881 9.63267 40.0028 9.866C40.2268 10.0993 40.5441 10.216 40.9548 10.216C41.3935 10.216 41.7575 10.09 42.0468 9.838L42.3968 10.552C42.2008 10.7293 41.9628 10.86 41.6828 10.944C41.4121 11.028 41.1321 11.07 40.8428 11.07ZM37.3708 4.476V3.65H41.9208V4.476H37.3708ZM48.8123 11V9.376L48.7703 9.11V6.394C48.7703 5.76867 48.593 5.288 48.2383 4.952C47.893 4.616 47.375 4.448 46.6843 4.448C46.2083 4.448 45.7556 4.52733 45.3263 4.686C44.897 4.84467 44.533 5.05467 44.2343 5.316L43.7863 4.574C44.1596 4.25667 44.6076 4.014 45.1303 3.846C45.653 3.66867 46.2036 3.58 46.7823 3.58C47.7343 3.58 48.467 3.818 48.9803 4.294C49.503 4.76067 49.7643 5.47467 49.7643 6.436V11H48.8123ZM46.2783 11.07C45.7276 11.07 45.247 10.9813 44.8363 10.804C44.435 10.6173 44.127 10.3653 43.9123 10.048C43.6976 9.72133 43.5903 9.348 43.5903 8.928C43.5903 8.54533 43.679 8.2 43.8563 7.892C44.043 7.57467 44.3416 7.32267 44.7523 7.136C45.1723 6.94 45.7323 6.842 46.4323 6.842H48.9663V7.584H46.4603C45.751 7.584 45.2563 7.71 44.9763 7.962C44.7056 8.214 44.5703 8.52667 44.5703 8.9C44.5703 9.32 44.7336 9.656 45.0603 9.908C45.387 10.16 45.8443 10.286 46.4323 10.286C46.9923 10.286 47.473 10.16 47.8743 9.908C48.285 9.64667 48.5836 9.27333 48.7703 8.788L48.9943 9.474C48.8076 9.95933 48.481 10.3467 48.0143 10.636C47.557 10.9253 46.9783 11.07 46.2783 11.07ZM52.4641 11V0.611999H53.4581V11H52.4641ZM57.0079 9.096L57.0359 7.822L61.6139 3.65H62.8319L59.5979 6.744L59.0379 7.22L57.0079 9.096ZM56.2239 11V0.611999H57.2179V11H56.2239ZM61.9219 11L58.8559 7.178L59.4999 6.408L63.1399 11H61.9219ZM64.1668 13.044L64.7828 10.454L64.8948 11.056C64.6801 11.056 64.4981 10.986 64.3488 10.846C64.2088 10.706 64.1388 10.524 64.1388 10.3C64.1388 10.076 64.2088 9.894 64.3488 9.754C64.4981 9.614 64.6755 9.544 64.8808 9.544C65.0955 9.544 65.2681 9.61867 65.3988 9.768C65.5388 9.91733 65.6088 10.0947 65.6088 10.3C65.6088 10.3747 65.6041 10.4493 65.5948 10.524C65.5855 10.5987 65.5668 10.6827 65.5388 10.776C65.5108 10.8693 65.4735 10.9813 65.4268 11.112L64.8388 13.044H64.1668ZM70.5597 11V10.286L74.6337 6.296C75.007 5.932 75.287 5.61467 75.4737 5.344C75.6603 5.064 75.7863 4.80267 75.8517 4.56C75.917 4.31733 75.9497 4.08867 75.9497 3.874C75.9497 3.30467 75.7537 2.85667 75.3617 2.53C74.979 2.20333 74.4097 2.04 73.6537 2.04C73.075 2.04 72.5617 2.12867 72.1137 2.306C71.675 2.48333 71.297 2.75867 70.9797 3.132L70.2657 2.516C70.6483 2.068 71.1383 1.72267 71.7357 1.48C72.333 1.23733 73.0003 1.116 73.7377 1.116C74.4003 1.116 74.9743 1.22333 75.4597 1.438C75.945 1.64333 76.3183 1.94667 76.5797 2.348C76.8503 2.74933 76.9857 3.22067 76.9857 3.762C76.9857 4.07933 76.939 4.392 76.8457 4.7C76.7617 5.008 76.603 5.33467 76.3697 5.68C76.1457 6.016 75.8143 6.39867 75.3757 6.828L71.6377 10.496L71.3577 10.104H77.4337V11H70.5597ZM82.5774 11.084C81.8214 11.084 81.1494 10.888 80.5614 10.496C79.9734 10.0947 79.5114 9.52533 79.1754 8.788C78.8394 8.04133 78.6714 7.14533 78.6714 6.1C78.6714 5.05467 78.8394 4.16333 79.1754 3.426C79.5114 2.67933 79.9734 2.11 80.5614 1.718C81.1494 1.31667 81.8214 1.116 82.5774 1.116C83.3334 1.116 84.0054 1.31667 84.5934 1.718C85.1814 2.11 85.6434 2.67933 85.9794 3.426C86.3247 4.16333 86.4974 5.05467 86.4974 6.1C86.4974 7.14533 86.3247 8.04133 85.9794 8.788C85.6434 9.52533 85.1814 10.0947 84.5934 10.496C84.0054 10.888 83.3334 11.084 82.5774 11.084ZM82.5774 10.16C83.156 10.16 83.66 10.006 84.0894 9.698C84.5187 9.38067 84.8547 8.92333 85.0974 8.326C85.34 7.71933 85.4614 6.97733 85.4614 6.1C85.4614 5.22267 85.34 4.48533 85.0974 3.888C84.8547 3.28133 84.5187 2.824 84.0894 2.516C83.66 2.19867 83.156 2.04 82.5774 2.04C82.0174 2.04 81.518 2.19867 81.0794 2.516C80.6407 2.824 80.3 3.28133 80.0574 3.888C79.8147 4.48533 79.6934 5.22267 79.6934 6.1C79.6934 6.97733 79.8147 7.71933 80.0574 8.326C80.3 8.92333 80.6407 9.38067 81.0794 9.698C81.518 10.006 82.0174 10.16 82.5774 10.16ZM89.6489 11V1.62L90.0969 2.096H87.3389V1.2H90.6569V11H89.6489ZM96.7235 11.084C95.9395 11.084 95.2628 10.972 94.6935 10.748C94.1335 10.524 93.6995 10.202 93.3915 9.782C93.0928 9.35267 92.9435 8.84867 92.9435 8.27C92.9435 7.71 93.0882 7.234 93.3775 6.842C93.6762 6.44067 94.1055 6.13267 94.6655 5.918C95.2348 5.70333 95.9208 5.596 96.7235 5.596C97.5168 5.596 98.1982 5.70333 98.7675 5.918C99.3368 6.13267 99.7708 6.44067 100.069 6.842C100.377 7.234 100.531 7.71 100.531 8.27C100.531 8.84867 100.377 9.35267 100.069 9.782C99.7615 10.202 99.3228 10.524 98.7535 10.748C98.1842 10.972 97.5075 11.084 96.7235 11.084ZM96.7235 10.23C97.5915 10.23 98.2682 10.0527 98.7535 9.698C99.2482 9.34333 99.4955 8.86267 99.4955 8.256C99.4955 7.64933 99.2482 7.17333 98.7535 6.828C98.2682 6.47333 97.5915 6.296 96.7235 6.296C95.8555 6.296 95.1788 6.47333 94.6935 6.828C94.2082 7.17333 93.9655 7.64933 93.9655 8.256C93.9655 8.86267 94.2082 9.34333 94.6935 9.698C95.1788 10.0527 95.8555 10.23 96.7235 10.23ZM96.7235 6.17C95.9955 6.17 95.3748 6.072 94.8615 5.876C94.3575 5.68 93.9702 5.4 93.6995 5.036C93.4288 4.66267 93.2935 4.21933 93.2935 3.706C93.2935 3.16467 93.4335 2.70267 93.7135 2.32C94.0028 1.928 94.4042 1.62933 94.9175 1.424C95.4308 1.21867 96.0328 1.116 96.7235 1.116C97.4142 1.116 98.0162 1.21867 98.5295 1.424C99.0522 1.62933 99.4582 1.928 99.7475 2.32C100.037 2.70267 100.181 3.16467 100.181 3.706C100.181 4.21933 100.046 4.66267 99.7755 5.036C99.5048 5.4 99.1082 5.68 98.5855 5.876C98.0722 6.072 97.4515 6.17 96.7235 6.17ZM96.7235 5.498C97.4888 5.498 98.0862 5.33933 98.5155 5.022C98.9448 4.70467 99.1595 4.28 99.1595 3.748C99.1595 3.188 98.9355 2.754 98.4875 2.446C98.0488 2.12867 97.4608 1.97 96.7235 1.97C95.9862 1.97 95.3982 2.12867 94.9595 2.446C94.5208 2.754 94.3015 3.18333 94.3015 3.734C94.3015 4.27533 94.5115 4.70467 94.9315 5.022C95.3608 5.33933 95.9582 5.498 96.7235 5.498ZM104.863 7.556V6.842H111.863V7.556H104.863ZM116.073 11V10.286L120.147 6.296C120.521 5.932 120.801 5.61467 120.987 5.344C121.174 5.064 121.3 4.80267 121.365 4.56C121.431 4.31733 121.463 4.08867 121.463 3.874C121.463 3.30467 121.267 2.85667 120.875 2.53C120.493 2.20333 119.923 2.04 119.167 2.04C118.589 2.04 118.075 2.12867 117.627 2.306C117.189 2.48333 116.811 2.75867 116.493 3.132L115.779 2.516C116.162 2.068 116.652 1.72267 117.249 1.48C117.847 1.23733 118.514 1.116 119.251 1.116C119.914 1.116 120.488 1.22333 120.973 1.438C121.459 1.64333 121.832 1.94667 122.093 2.348C122.364 2.74933 122.499 3.22067 122.499 3.762C122.499 4.07933 122.453 4.392 122.359 4.7C122.275 5.008 122.117 5.33467 121.883 5.68C121.659 6.016 121.328 6.39867 120.889 6.828L117.151 10.496L116.871 10.104H122.947V11H116.073ZM128.091 11.084C127.335 11.084 126.663 10.888 126.075 10.496C125.487 10.0947 125.025 9.52533 124.689 8.788C124.353 8.04133 124.185 7.14533 124.185 6.1C124.185 5.05467 124.353 4.16333 124.689 3.426C125.025 2.67933 125.487 2.11 126.075 1.718C126.663 1.31667 127.335 1.116 128.091 1.116C128.847 1.116 129.519 1.31667 130.107 1.718C130.695 2.11 131.157 2.67933 131.493 3.426C131.838 4.16333 132.011 5.05467 132.011 6.1C132.011 7.14533 131.838 8.04133 131.493 8.788C131.157 9.52533 130.695 10.0947 130.107 10.496C129.519 10.888 128.847 11.084 128.091 11.084ZM128.091 10.16C128.67 10.16 129.174 10.006 129.603 9.698C130.032 9.38067 130.368 8.92333 130.611 8.326C130.854 7.71933 130.975 6.97733 130.975 6.1C130.975 5.22267 130.854 4.48533 130.611 3.888C130.368 3.28133 130.032 2.824 129.603 2.516C129.174 2.19867 128.67 2.04 128.091 2.04C127.531 2.04 127.032 2.19867 126.593 2.516C126.154 2.824 125.814 3.28133 125.571 3.888C125.328 4.48533 125.207 5.22267 125.207 6.1C125.207 6.97733 125.328 7.71933 125.571 8.326C125.814 8.92333 126.154 9.38067 126.593 9.698C127.032 10.006 127.531 10.16 128.091 10.16ZM133.273 11V10.286L137.347 6.296C137.72 5.932 138 5.61467 138.187 5.344C138.373 5.064 138.499 4.80267 138.565 4.56C138.63 4.31733 138.663 4.08867 138.663 3.874C138.663 3.30467 138.467 2.85667 138.075 2.53C137.692 2.20333 137.123 2.04 136.367 2.04C135.788 2.04 135.275 2.12867 134.827 2.306C134.388 2.48333 134.01 2.75867 133.693 3.132L132.979 2.516C133.361 2.068 133.851 1.72267 134.449 1.48C135.046 1.23733 135.713 1.116 136.451 1.116C137.113 1.116 137.687 1.22333 138.173 1.438C138.658 1.64333 139.031 1.94667 139.293 2.348C139.563 2.74933 139.699 3.22067 139.699 3.762C139.699 4.07933 139.652 4.392 139.559 4.7C139.475 5.008 139.316 5.33467 139.083 5.68C138.859 6.016 138.527 6.39867 138.089 6.828L134.351 10.496L134.071 10.104H140.147V11H133.273ZM141.23 11V10.286L145.304 6.296C145.677 5.932 145.957 5.61467 146.144 5.344C146.33 5.064 146.456 4.80267 146.522 4.56C146.587 4.31733 146.62 4.08867 146.62 3.874C146.62 3.30467 146.424 2.85667 146.032 2.53C145.649 2.20333 145.08 2.04 144.324 2.04C143.745 2.04 143.232 2.12867 142.784 2.306C142.345 2.48333 141.967 2.75867 141.65 3.132L140.936 2.516C141.318 2.068 141.808 1.72267 142.406 1.48C143.003 1.23733 143.67 1.116 144.408 1.116C145.07 1.116 145.644 1.22333 146.13 1.438C146.615 1.64333 146.988 1.94667 147.25 2.348C147.52 2.74933 147.656 3.22067 147.656 3.762C147.656 4.07933 147.609 4.392 147.516 4.7C147.432 5.008 147.273 5.33467 147.04 5.68C146.816 6.016 146.484 6.39867 146.046 6.828L142.308 10.496L142.028 10.104H148.104V11H141.23Z" fill="white"/>
</svg>
